<svg width="40" height="40" viewBox="0 0 40 40" fill="none" xmlns="http://www.w3.org/2000/svg">
<path d="M0 10C0 4.47715 4.47715 0 10 0H30C35.5228 0 40 4.47715 40 10V30C40 35.5228 35.5228 40 30 40H10C4.47715 40 0 35.5228 0 30V10Z" fill="#DC143C"/>
<path d="M7.85962 20.664C7.85962 19.416 8.12963 18.306 8.66963 17.334C9.20963 16.35 9.95963 15.588 10.9196 15.048C11.8916 14.496 12.9896 14.22 14.2136 14.22C15.7136 14.22 16.9976 14.616 18.0656 15.408C19.1336 16.2 19.8476 17.28 20.2076 18.648H16.8236C16.5596 18.132 16.1996 17.742 15.7436 17.478C15.2876 17.202 14.7656 17.064 14.1776 17.064C13.2296 17.064 12.4616 17.394 11.8736 18.054C11.2856 18.702 10.9916 19.572 10.9916 20.664C10.9916 21.756 11.2856 22.632 11.8736 23.292C12.4616 23.952 13.2296 24.282 14.1776 24.282C14.7656 24.282 15.2876 24.144 15.7436 23.868C16.1996 23.592 16.5596 23.196 16.8236 22.68H20.2076C19.8476 24.048 19.1336 25.128 18.0656 25.92C16.9976 26.7 15.7136 27.09 14.2136 27.09C12.9896 27.09 11.8916 26.82 10.9196 26.28C9.95963 25.728 9.20963 24.966 8.66963 23.994C8.12963 23.022 7.85962 21.912 7.85962 20.664ZM28.5366 27L25.9086 22.23H25.1706V27H22.0926V14.364H27.2586C28.2546 14.364 29.1006 14.538 29.7966 14.886C30.5046 15.234 31.0326 15.714 31.3806 16.326C31.7286 16.926 31.9026 17.598 31.9026 18.342C31.9026 19.182 31.6626 19.932 31.1826 20.592C30.7146 21.252 30.0186 21.72 29.0946 21.996L32.0106 27H28.5366ZM25.1706 20.052H27.0786C27.6426 20.052 28.0626 19.914 28.3386 19.638C28.6266 19.362 28.7706 18.972 28.7706 18.468C28.7706 17.976 28.6266 17.592 28.3386 17.316C28.0626 17.028 27.6426 16.884 27.0786 16.884H25.1706V20.052Z" fill="white"/>
</svg>
