<svg width="44" height="44" viewBox="0 0 44 44" fill="none" xmlns="http://www.w3.org/2000/svg">
<g clip-path="url(#clip0_321_588)">
<path d="M44.0001 4.04912C44.0001 1.81643 42.1836 0 39.9496 0H39.9493C37.8243 0 35.8266 0.827481 34.3244 2.33004L27.1195 9.535L9.19183 5.31669C5.77213 4.51204 2.16546 5.93504 0.216765 8.85791C0.0757748 9.06973 0.000244141 9.31848 0.000244141 9.57293C0.000244141 10.0473 0.260741 10.4837 0.678342 10.7082L17.1021 19.552L9.03976 27.6144H4.04936C1.81667 27.6144 0.000244141 29.4308 0.000244141 31.6652C0.000244141 32.1177 0.237914 32.5373 0.62631 32.7703L7.25354 36.7469L11.2298 43.3741C11.4628 43.7622 11.8824 43.9998 12.3352 43.9998C13.4179 43.9998 14.435 43.5782 15.199 42.8135C15.9644 42.0485 16.3857 41.0313 16.3857 39.9494V34.9606L24.448 26.898L33.2918 43.3221C33.5167 43.7397 33.9531 44.0002 34.4271 44.0002C34.6816 44.0002 34.9303 43.9246 35.1422 43.7833C38.065 41.8349 39.488 38.2283 38.6837 34.8086L34.4654 16.8809L41.67 9.67599C43.1726 8.17309 44.0001 6.17539 44.0001 4.04912ZM3.30614 9.19528C4.71739 7.92166 6.70099 7.37918 8.60135 7.82599L24.9754 11.6787L19.0054 17.6487L3.30614 9.19528ZM36.1741 35.3991C36.6212 37.2994 36.0784 39.283 34.8051 40.6943L26.3514 24.9946L32.3213 19.0247L36.1741 35.3991ZM39.8472 7.85284L14.1852 33.5148C13.9432 33.7569 13.8076 34.0845 13.8076 34.4266V39.9494C13.8076 40.3425 13.6545 40.7121 13.3759 40.9907C13.2577 41.1088 13.1231 41.2045 12.9771 41.2754L9.29824 35.1439C9.18948 34.9627 9.03774 34.8106 8.85614 34.7018L2.72539 31.0233C2.96373 30.5322 3.46761 30.1928 4.04936 30.1928H9.57384C9.91558 30.1928 10.2436 30.0569 10.4852 29.8152L36.1472 4.15285C37.1627 3.13738 38.5128 2.57811 39.9493 2.57811H39.951C40.762 2.57811 41.422 3.23809 41.422 4.05046C41.422 5.48689 40.8627 6.83704 39.8472 7.85284Z" fill="#DB143C"/>
</g>
<defs>
<clipPath id="clip0_321_588">
<rect width="44" height="44" fill="white"/>
</clipPath>
</defs>
</svg>
