<svg width="44" height="44" viewBox="0 0 44 44" fill="none" xmlns="http://www.w3.org/2000/svg">
<path d="M39.5796 41.4212V9.80329H32.9124V0L11.0876 6.1192V14.8827H4.42035V41.4212H1.7124V44H42.2876V41.4212H39.5796ZM6.9991 41.4212V17.4614H17.8292V41.4212H6.9991ZM20.4079 41.4212V14.8827H13.6663V8.07441L30.3335 3.40128L30.2963 41.4213H20.4079V41.4212ZM32.9124 41.4212V12.382H37.0008V41.4212H32.9124Z" fill="#DB143C"/>
<path d="M11.1248 21.5339H13.7035V26.7207H11.1248V21.5339Z" fill="#DB143C"/>
<path d="M11.1248 31.0067H13.7035V36.1935H11.1248V31.0067Z" fill="#DB143C"/>
<path d="M23.592 21.5339H26.1708V26.7207H23.592V21.5339Z" fill="#DB143C"/>
<path d="M23.592 12.0612H26.1708V17.248H23.592V12.0612Z" fill="#DB143C"/>
<path d="M23.592 31.0067H26.1708V36.1935H23.592V31.0067Z" fill="#DB143C"/>
</svg>
