<svg width="44" height="25" viewBox="0 0 44 25" fill="none" xmlns="http://www.w3.org/2000/svg">
<path d="M41.5601 10.2815L35.0127 8.15203L28.4919 1.63118C27.4401 0.579305 26.0415 0 24.5539 0H13.384C11.2142 0 9.17443 0.844938 7.64019 2.37927L1.16703 8.85225C0.414477 9.60481 0 10.6054 0 11.6696V16.9717C0 19.1687 1.78733 20.956 3.98432 20.956H4.13763C4.71152 23.1774 6.73252 24.8232 9.13069 24.8232C11.5289 24.8232 13.5499 23.1774 14.1237 20.956H29.8761C30.45 23.1774 32.471 24.8232 34.8691 24.8232C37.2673 24.8232 39.2884 23.1774 39.8622 20.956H40.4673C42.4153 20.956 44 19.3713 44 17.4235V13.6408C44 12.1062 43.0195 10.7562 41.5601 10.2815ZM26.669 3.45409L31.2081 7.99322H23.2891V2.57804H24.554C25.3529 2.57804 26.104 2.88922 26.669 3.45409ZM20.7109 2.57804V7.99322H15.3905C13.4312 7.99322 11.837 6.39908 11.837 4.4397V2.79684C12.3335 2.65341 12.8528 2.57804 13.3839 2.57804H20.7109ZM9.13077 22.2451C7.7092 22.2451 6.55265 21.0885 6.55265 19.667C6.55265 18.2454 7.7092 17.0888 9.13077 17.0888C10.5524 17.0888 11.7089 18.2454 11.7089 19.667C11.7089 21.0885 10.5524 22.2451 9.13077 22.2451ZM34.8692 22.2451C33.4476 22.2451 32.2911 21.0885 32.2911 19.667C32.2911 18.2454 33.4476 17.0888 34.8692 17.0888C36.2908 17.0888 37.4474 18.2454 37.4474 19.667C37.4474 21.0885 36.2908 22.2451 34.8692 22.2451ZM41.4219 17.4235C41.4219 17.9498 40.9937 18.3779 40.4675 18.3779H39.8624C39.2885 16.1565 37.2675 14.5107 34.8693 14.5107C32.4711 14.5107 30.4501 16.1565 29.8763 18.3779H14.1239C13.55 16.1565 11.529 14.5107 9.13086 14.5107C6.73269 14.5107 4.71161 16.1565 4.1378 18.3779H3.98449C3.20891 18.3779 2.57812 17.7471 2.57812 16.9717V11.6696C2.57812 11.294 2.72439 10.9409 2.98994 10.6752L9.25891 4.40627V4.4397C9.25891 7.82074 12.0095 10.5713 15.3905 10.5713H34.116L40.7626 12.7331C41.1569 12.8614 41.4219 13.2261 41.4219 13.6408V17.4235Z" fill="#DB143C"/>
<path d="M26.8353 12.2903H24.5413C23.8294 12.2903 23.2522 12.8674 23.2522 13.5793C23.2522 14.2913 23.8294 14.8684 24.5413 14.8684H26.8353C27.5472 14.8684 28.1243 14.2913 28.1243 13.5793C28.1243 12.8674 27.5472 12.2903 26.8353 12.2903Z" fill="#DB143C"/>
</svg>
