<svg width="46" height="46" viewBox="0 0 46 46" fill="none" xmlns="http://www.w3.org/2000/svg">
<path d="M35.2812 19.567V21.0553H33.793V19.567H35.2812Z" fill="#DB143C" stroke="#DB143C" stroke-width="0.2"/>
<path d="M37.8584 19.567V21.0553H36.3701V19.567H37.8584Z" fill="#DB143C" stroke="#DB143C" stroke-width="0.2"/>
<path d="M6.65625 8.30981L7.61914 9.16626L7.69434 9.23364L7.62695 9.30786C-4.12129 22.4223 5.38235 43.6151 23.0146 43.5627C25.7197 43.5627 28.3473 43.0461 30.8242 42.0286L30.916 41.9905L30.9541 42.0833L31.4443 43.2756L31.4824 43.3694L31.3877 43.4065C9.56366 51.8869 -8.72364 26.1247 6.51367 8.31958L6.58008 8.24243L6.65625 8.30981Z" fill="#DB143C" stroke="#DB143C" stroke-width="0.2"/>
<path d="M22.27 5.85449C0.116534 7.62374 0.681905 39.2524 23.0171 40.125C32.2211 40.1236 39.7519 32.8333 40.1431 23.7236H26.2495C25.3037 27.5072 19.8056 26.9639 19.6929 22.9824V22.9795C19.6929 21.4037 20.7959 20.0832 22.27 19.7441V5.85449ZM23.0142 21.1465C22.0037 21.1466 21.1812 21.9689 21.1812 22.9795C21.2856 25.4095 24.7423 25.4101 24.8472 22.9795L24.8384 22.792C24.7443 21.8689 23.9616 21.1465 23.0142 21.1465ZM23.7593 19.7441C24.9937 20.0282 25.9655 21 26.2495 22.2344H40.1421C39.7612 13.3712 32.6225 6.23138 23.7593 5.85059V19.7441ZM23.7583 4.36035C33.4433 4.74261 41.2506 12.5496 41.6333 22.2344H45.0825L45.0864 22.3311C45.3959 30.8851 40.3397 39.2159 32.6069 42.8633L32.5171 42.9053L32.4741 42.8164L31.9126 41.6562L31.8696 41.5664L31.9595 41.5225C38.8051 38.2133 43.3042 31.2837 43.5825 23.7236H41.6294C39.7825 47.8556 5.32821 47.2822 4.37939 22.9834V22.9795C4.37939 12.9532 12.3382 4.75272 22.27 4.36035V2.40918C17.0679 2.59295 12.2002 4.7008 8.4917 8.39258L8.42041 8.46387L8.3501 8.39258L7.44092 7.47949L7.37061 7.40918L7.44092 7.33789C11.7537 3.02772 17.5754 0.754751 23.6616 0.907227L23.7583 0.90918V4.36035Z" fill="#DB143C" stroke="#DB143C" stroke-width="0.2"/>
<path d="M30.0405 9.65161V10.7053H32.4028V12.1936H30.0405V14.1418H30.5894C33.8497 14.2766 33.8515 18.9312 30.5894 19.0667H30.0405V20.1204H28.5522V19.0667H26.189V17.5784H28.5522V15.6301H28.0073C26.6495 15.63 25.5454 14.5251 25.5454 13.1672C25.5456 11.8095 26.6496 10.7055 28.0073 10.7053H28.5522V9.65161H30.0405ZM30.0405 17.5784H30.5806C31.8365 17.5266 31.8764 15.7968 30.6987 15.6399L30.5806 15.6301H30.0405V17.5784ZM28.0073 12.1936C27.4706 12.1938 27.0338 12.6305 27.0337 13.1672C27.0337 13.7041 27.4705 14.1417 28.0073 14.1418H28.5522V12.1936H28.0073Z" fill="#DB143C" stroke="#DB143C" stroke-width="0.2"/>
<path d="M12.0962 22.2352V23.7235H8.46045V22.2352H12.0962Z" fill="#DB143C" stroke="#DB143C" stroke-width="0.2"/>
<path d="M23.7588 33.8977V37.5334H22.2705V33.8977H23.7588Z" fill="#DB143C" stroke="#DB143C" stroke-width="0.2"/>
<path d="M13.247 12.1615L15.8178 14.7324L14.7654 15.7847L12.1946 13.2139L13.247 12.1615Z" fill="#DB143C" stroke="#DB143C" stroke-width="0.2"/>
<path d="M31.2553 30.1736L33.8261 32.7444L32.7737 33.7968L30.2029 31.226L31.2553 30.1736Z" fill="#DB143C" stroke="#DB143C" stroke-width="0.2"/>
<path d="M14.7635 30.1717L15.8159 31.2241L13.245 33.7949L12.1926 32.7426L14.7635 30.1717Z" fill="#DB143C" stroke="#DB143C" stroke-width="0.2"/>
</svg>
